<?xml version="1.0" standalone="no"?>
<!DOCTYPE svg PUBLIC "-//W3C//DTD SVG 20010904//EN"
 "http://www.w3.org/TR/2001/REC-SVG-20010904/DTD/svg10.dtd">
<svg version="1.0" xmlns="http://www.w3.org/2000/svg"
 width="621.000000pt" height="621.000000pt" viewBox="0 0 621.000000 621.000000"
 preserveAspectRatio="xMidYMid meet">

<g transform="translate(0.000000,621.000000) scale(0.100000,-0.100000)"
fill="#000000" stroke="none">
<path d="M2935 6179 c-510 -25 -977 -166 -1404 -423 -239 -144 -523 -381 -712
-591 -569 -636 -828 -1368 -788 -2230 24 -519 163 -981 424 -1415 308 -511
826 -982 1347 -1224 410 -191 818 -277 1308 -277 645 0 1186 158 1685 492 307
205 571 457 801 762 431 574 628 1235 593 1992 -20 427 -109 789 -284 1152
-223 463 -549 856 -977 1175 -464 348 -1025 554 -1583 583 -226 11 -263 12
-410 4z m-738 -1908 c165 -41 309 -127 435 -259 186 -195 289 -444 327 -784 6
-54 11 -124 11 -158 l0 -60 -861 0 -862 0 6 -112 c18 -331 187 -555 484 -640
103 -30 323 -32 423 -5 193 52 358 203 386 353 l6 34 190 0 190 0 -8 -32 c-57
-264 -224 -477 -471 -602 -173 -87 -444 -125 -680 -96 -240 30 -426 116 -584
270 -163 160 -254 342 -312 625 -29 146 -32 465 -5 591 67 309 232 571 456
723 122 83 290 150 427 171 100 15 348 5 442 -19z m1712 -386 c156 -228 287
-415 292 -415 4 0 139 185 300 411 161 226 297 413 303 415 6 2 114 3 239 2
l228 -3 -397 -530 c-218 -291 -403 -540 -411 -552 -14 -21 7 -52 439 -655 250
-348 458 -639 462 -645 6 -10 -46 -13 -246 -13 l-253 1 -329 489 c-180 270
-331 490 -335 490 -4 0 -156 -220 -337 -490 l-329 -489 -237 -1 c-131 0 -238
2 -238 4 0 3 200 285 445 628 245 343 443 628 441 634 -3 7 -187 260 -410 564
-223 304 -406 556 -406 561 0 5 109 9 248 9 l247 0 284 -415z"/>
<path d="M1810 3960 c-146 -19 -254 -73 -361 -180 -63 -61 -84 -92 -122 -170
-43 -89 -77 -207 -77 -264 l0 -26 655 0 655 0 0 33 c0 59 -38 185 -80 266 -97
187 -273 311 -484 340 -84 12 -104 12 -186 1z"/>
</g>
</svg>
