<?xml version="1.0" encoding="UTF-8"?><svg id="Layer_1" xmlns="http://www.w3.org/2000/svg" viewBox="0 0 238.22 55.03"><defs><style>.cls-1,.cls-2{fill:#00b3e3;}.cls-3{fill:#fff;}.cls-3,.cls-2{fill-rule:evenodd;}.cls-4{fill:#0079b2;}</style></defs><rect class="cls-4" width="124.25" height="55.03"/><path class="cls-2" d="M194.9,47.89h-9.04V23.15c0-2.67,.11-5.62,.34-8.85h-.23c-.47,2.54-.9,4.36-1.28,5.48l-9.52,28.12h-7.48l-9.69-27.83c-.26-.75-.69-2.67-1.28-5.77h-.25c.25,4.08,.37,7.65,.37,10.73v22.87h-8.24V6.54h13.4l8.3,24.51c.66,1.96,1.14,3.93,1.45,5.91h.17c.51-2.29,1.05-4.28,1.61-5.97l8.3-24.45h13.06V47.89Z"/><path class="cls-2" d="M238.22,47.89h-10.51l-6.32-10.64c-.47-.81-.93-1.53-1.36-2.16-.43-.63-.87-1.18-1.32-1.63-.44-.45-.91-.8-1.39-1.04-.48-.24-1.01-.36-1.57-.36h-2.46v15.83h-9.15V6.54h14.51c9.86,0,14.79,3.75,14.79,11.25,0,1.44-.22,2.77-.65,3.99-.43,1.22-1.05,2.32-1.84,3.3-.79,.98-1.75,1.83-2.88,2.54-1.12,.71-2.38,1.27-3.75,1.67v.11c.6,.19,1.19,.5,1.76,.94,.57,.43,1.11,.94,1.64,1.51,.53,.58,1.03,1.2,1.52,1.86,.48,.66,.92,1.31,1.32,1.95l7.68,12.23h0Zm-24.93-34.37h0v11.51h3.97c1.96,0,3.54-.58,4.73-1.73,1.21-1.17,1.81-2.62,1.81-4.35,0-3.61-2.13-5.42-6.38-5.42h-4.14Z"/><circle class="cls-1" cx="136.39" cy="43.12" r="4.79" transform="translate(.51 87.82) rotate(-35.75)"/><polygon class="cls-3" points="33.51 10.88 17.36 10.88 17.36 25.18 32.29 25.18 32.29 29.54 17.36 29.54 17.36 47.85 12.51 47.85 12.51 6.5 33.51 6.5 33.51 10.88"/><path class="cls-3" d="M61.85,47.85h-4.73v-4.61h-.12c-2.06,3.54-5.08,5.31-9.08,5.31-2.94,0-5.24-.78-6.91-2.34-1.66-1.56-2.49-3.62-2.49-6.2,0-5.52,3.25-8.73,9.75-9.63l8.85-1.24c0-5.02-2.03-7.53-6.08-7.53-3.56,0-6.77,1.21-9.63,3.63v-4.84c2.9-1.84,6.25-2.77,10.04-2.77,6.94,0,10.41,3.67,10.41,11.02v19.2h0Zm-4.73-14.94h0l-7.12,.98c-2.19,.31-3.84,.85-4.96,1.63-1.12,.78-1.67,2.16-1.67,4.14,0,1.44,.51,2.62,1.54,3.53,1.03,.91,2.4,1.37,4.11,1.37,2.34,0,4.28-.82,5.81-2.47,1.53-1.64,2.29-3.72,2.29-6.24v-2.94Z"/><path class="cls-3" d="M90.89,46.49c-2.27,1.37-4.96,2.05-8.07,2.05-4.21,0-7.61-1.37-10.19-4.11-2.59-2.74-3.88-6.29-3.88-10.65,0-4.86,1.39-8.77,4.18-11.72,2.79-2.95,6.51-4.43,11.16-4.43,2.59,0,4.88,.48,6.86,1.44v4.84c-2.19-1.54-4.54-2.31-7.04-2.31-3.02,0-5.49,1.08-7.43,3.24-1.93,2.16-2.9,5-2.9,8.52s.91,6.19,2.73,8.19c1.82,2,4.25,3,7.31,3,2.58,0,5-.85,7.27-2.57v4.5Z"/><path class="cls-3" d="M111.74,47.56c-1.12,.62-2.59,.92-4.41,.92-5.17,0-7.76-2.88-7.76-8.65V22.35h-5.07v-4.04h5.07v-7.21l4.73-1.53v8.74h7.44v4.04h-7.44v16.64c0,1.98,.34,3.39,1.01,4.24,.67,.85,1.79,1.27,3.35,1.27,1.19,0,2.22-.33,3.09-.98v4.04Z"/></svg>