<?xml version="1.0" encoding="utf-8"?>
<!-- Uploaded to: SVG Repo, www.svgrepo.com, Generator: SVG Repo Mixer Tools -->
<svg width="800px" height="800px" viewBox="0 0 24 24" fill="none" xmlns="http://www.w3.org/2000/svg">
<g id="style=bulk">
<g id="email">
<path id="vector (Stroke)" fill-rule="evenodd" clip-rule="evenodd" d="M2.86466 4.1379C3.92465 3.15363 5.38503 2.75 7 2.75H17C18.615 2.75 20.0754 3.15363 21.1353 4.1379C22.2054 5.13152 22.75 6.60705 22.75 8.5V15.5C22.75 17.393 22.2054 18.8685 21.1353 19.8621C20.0754 20.8464 18.615 21.25 17 21.25H7C5.38503 21.25 3.92465 20.8464 2.86466 19.8621C1.79462 18.8685 1.25 17.393 1.25 15.5V8.5C1.25 6.60705 1.79462 5.13152 2.86466 4.1379Z" fill="#BFBFBF"/>
<path id="vector (Stroke)_2" fill-rule="evenodd" clip-rule="evenodd" d="M19.3633 7.31026C19.6166 7.63802 19.5562 8.10904 19.2285 8.3623L13.6814 12.6486C12.691 13.4138 11.3089 13.4138 10.3185 12.6486L4.77144 8.3623C4.44367 8.10904 4.38328 7.63802 4.63655 7.31026C4.88982 6.98249 5.36083 6.9221 5.6886 7.17537L11.2356 11.4616C11.6858 11.8095 12.3141 11.8095 12.7642 11.4616L18.3113 7.17537C18.6391 6.9221 19.1101 6.98249 19.3633 7.31026Z" fill="#000000"/>
</g>
</g>
</svg>